<?xml version="1.0" encoding="UTF-8"?>
<!DOCTYPE svg PUBLIC "-//W3C//DTD SVG 1.1//EN" "http://www.w3.org/Graphics/SVG/1.1/DTD/svg11.dtd">
<!-- Creator: CorelDRAW X8 -->
<svg xmlns="http://www.w3.org/2000/svg" xml:space="preserve" width="930px" height="902px" version="1.1" style="shape-rendering:geometricPrecision; text-rendering:geometricPrecision; image-rendering:optimizeQuality; fill-rule:evenodd; clip-rule:evenodd"
viewBox="0 0 219 212"
 xmlns:xlink="http://www.w3.org/1999/xlink">
 <defs>
  <style type="text/css">
   <![CDATA[
    .fil0 {fill:#0c2346}
    .fil1 {fill:#0c2346;fill-rule:nonzero}
   ]]>
  </style>
 </defs>
 <g id="Layer_x0020_1">
  <metadata id="CorelCorpID_0Corel-Layer"/>
  <g id="_1981723171344">
   <path class="fil0" d="M149 138c-1,9 -18,16 -39,16 -22,0 -40,-7 -40,-17 0,-1 1,-2 1,-3 0,1 0,1 0,2 0,8 17,15 39,15 20,0 37,-6 39,-13zm-74 -9c1,-1 1,-1 2,-2l0 0c-1,1 -1,1 -2,2z"/>
   <g>
    <polygon class="fil1" points="72,212 70,212 70,206 64,206 64,212 63,212 63,199 64,199 64,204 70,204 70,199 72,199 "/>
    <path id="1" class="fil1" d="M89 199c1,0 2,0 3,1 1,0 2,1 3,2 0,1 1,2 1,4 0,1 -1,2 -1,3 -1,1 -2,2 -3,2 -1,1 -2,1 -3,1 -1,0 -2,0 -3,-1 -1,0 -2,-1 -3,-2 0,-1 -1,-2 -1,-3 0,-2 1,-3 1,-4 1,-1 2,-2 3,-2 1,-1 2,-1 3,-1zm0 12c1,0 3,-1 4,-2 1,-1 1,-2 1,-3 0,-2 0,-3 -1,-4 -1,-1 -3,-2 -4,-2 -1,0 -3,1 -4,2 -1,1 -1,2 -1,4 0,1 0,2 1,3 1,1 3,2 4,2z"/>
    <polygon id="2" class="fil1" points="120,212 119,212 117,203 113,212 113,212 108,203 107,212 106,212 108,199 108,199 113,209 118,199 118,199 "/>
    <polygon id="3" class="fil1" points="138,201 132,201 132,204 138,204 138,206 132,206 132,210 138,210 138,212 131,212 131,199 138,199 "/>
    <path id="4" class="fil1" d="M153 202c0,-1 -1,-1 -1,-1 0,0 -1,-1 -1,-1 0,0 -1,1 -1,1 0,0 -1,0 -1,1 0,0 1,1 1,1 0,0 1,1 2,2 1,0 2,1 2,2 0,0 1,1 1,2 0,1 -1,2 -1,2 -1,1 -2,1 -3,1 -2,0 -3,-1 -4,-3l1 0c1,1 2,2 3,2 0,0 1,0 1,-1 1,0 1,-1 1,-1 0,-1 0,-1 0,-2 -1,0 -1,-1 -2,-1 -1,-1 -2,-1 -2,-2 0,0 -1,-1 -1,-1 0,0 0,-1 0,-1 0,-1 0,-2 1,-2 0,-1 1,-1 2,-1 1,0 1,0 2,0 0,1 1,1 2,2l-2 1z"/>
    <path class="fil1" d="M0 161l6 0c3,0 5,0 6,0 1,0 2,1 3,1 1,1 2,2 2,3 1,0 1,2 1,3 0,1 0,2 -1,3 0,1 -1,2 -2,2 -1,1 -2,1 -3,2 -1,0 -4,0 -7,0l-2 0 0 12 -3 0 0 -26zm3 11l5 0c2,0 4,0 5,-1 1,-1 1,-2 1,-3 0,-3 -2,-4 -6,-4l-5 0 0 8z"/>
    <polygon id="1" class="fil1" points="53,187 49,187 49,174 36,174 36,187 33,187 33,161 36,161 36,171 49,171 49,161 53,161 "/>
    <path id="2" class="fil1" d="M82 160c3,0 5,0 8,2 2,1 4,3 5,5 2,2 2,4 2,7 0,2 0,5 -2,7 -1,2 -3,4 -5,5 -2,1 -5,2 -8,2 -2,0 -5,-1 -7,-2 -2,-1 -4,-3 -6,-5 -1,-2 -1,-5 -1,-7 0,-3 0,-5 1,-7 2,-2 4,-4 6,-5 2,-2 5,-2 7,-2zm0 25c4,0 6,-1 8,-3 3,-2 4,-5 4,-8 0,-3 -1,-6 -4,-8 -2,-2 -5,-3 -8,-3 -3,0 -6,1 -8,3 -2,2 -3,5 -3,8 0,3 1,5 3,7 3,3 5,4 8,4z"/>
    <polygon id="3" class="fil1" points="128,164 115,164 115,171 128,171 128,174 115,174 115,184 128,184 128,187 112,187 112,161 128,161 "/>
    <polygon id="4" class="fil1" points="165,187 164,187 146,168 146,187 142,187 142,161 143,161 161,180 161,161 165,161 "/>
    <polygon id="5" class="fil1" points="184,187 180,187 180,161 184,161 "/>
    <polygon id="6" class="fil1" points="219,187 215,187 208,176 201,187 197,187 206,173 198,161 201,161 208,170 214,161 218,161 210,173 "/>
   </g>
   <path class="fil0" d="M119 115c-1,1 -3,2 -4,2 0,-2 3,-4 4,-6 -2,2 -4,3 -7,4 -1,0 -1,-1 1,-2 3,-3 4,-7 5,-10 0,0 0,-1 0,-1 -2,3 -7,8 -13,8 2,-2 6,-2 6,-6 0,1 -5,4 -7,4 3,-1 4,-3 5,-6 -2,2 -5,5 -8,7 0,0 0,1 -1,1 2,-3 5,-6 6,-9 -4,6 -8,7 -11,14l3 -3c-1,3 -5,5 -6,9 4,1 7,3 10,3 0,0 -1,1 -1,1 5,0 11,-2 15,-5 0,0 -2,0 -1,-1 1,-1 3,-2 4,-4zm0 3c-2,2 -2,3 -4,4 1,0 2,0 3,0 0,0 -1,0 -1,-1 0,-1 1,1 2,0l-1 -1c0,0 1,-1 1,-2zm-5 4l-2 2c-1,0 -2,0 -2,1 0,0 1,0 1,0 1,1 6,3 7,-1 -1,0 -2,1 -2,1 -1,-1 -2,-2 -2,-3zm-5 2c-2,2 -4,2 -6,2 2,1 3,0 4,0 1,1 1,0 2,-2zm-15 1c0,0 2,1 4,1 -2,2 -5,2 -7,4 0,-1 0,-3 0,-4 1,0 3,-2 3,-1zm-2 -1c-1,0 -1,1 -1,2 0,-1 1,-1 1,-1l0 -1zm1 -2c-1,0 -1,1 -1,2 0,0 1,0 2,0 2,1 5,2 7,0 -3,1 -6,-2 -8,-2zm20 -6c0,2 -2,4 -3,5 0,-1 1,-3 -1,-3 0,3 -3,4 -5,6 1,0 3,-1 5,-2 0,-1 0,-1 0,0 0,0 0,0 0,1 1,1 5,-5 4,-7zm-11 6c1,-2 0,-3 1,-5 1,0 0,-3 0,-2 -1,3 -6,3 -7,7 0,0 1,0 2,1 1,0 1,-1 1,-1 0,0 -1,0 -1,0 2,0 3,-1 4,0zm-8 2c1,0 1,0 1,0 1,0 1,0 1,-1 -1,0 -2,0 -2,1zm5 -3c-1,0 1,-2 2,-2 0,0 -2,2 -2,2zm40 2c7,3 10,7 10,11 0,8 -17,15 -39,15 -22,0 -39,-7 -39,-15 0,-4 4,-8 10,-11 2,6 15,11 29,11 15,0 27,-5 29,-11zm-90 -123l42 110c1,0 3,1 4,2 1,-3 4,-6 6,-8 2,-29 3,-71 -8,-80 -17,-14 -44,-24 -44,-24zm91 68c-2,8 -14,11 -18,19 -1,-1 -3,-3 -4,-4 -1,-25 0,-52 9,-59 17,-14 44,-24 44,-24l-42 110c-2,1 -5,2 -7,3 6,-6 7,-16 3,-23 5,-6 17,-9 15,-22zm10 -26c-6,14 -31,15 -29,40 1,-16 30,-16 29,-40zm11 -35c-7,19 -44,26 -39,59 1,-22 43,-27 39,-59zm-81 61c3,10 22,12 19,29 0,-11 -21,-12 -19,-29zm-9 -26c5,14 31,15 29,40 -2,-16 -31,-16 -29,-40zm-12 -35c7,19 44,26 40,59 -1,-22 -44,-27 -40,-59zm60 106c11,-9 5,-30 -12,-31 -9,8 2,14 -4,21l0 -1c0,0 3,-2 4,-3 1,1 -2,4 -1,5 0,0 0,0 1,-1 1,-1 2,-2 3,-3 0,2 -1,4 -2,6 2,-1 3,-3 5,-4 0,2 -2,5 -2,5 5,-2 7,-5 8,-8 0,4 -1,9 -3,13 2,-1 4,-4 5,-6 1,3 -1,5 -2,7zm11 -2c5,2 7,5 7,8 0,2 -2,4 -5,6 0,-1 1,-2 1,-3 1,0 2,-2 1,-3 -1,-2 -4,-4 -6,-5 1,-1 2,-2 2,-3zm-1 15c-2,1 -3,1 -5,2 0,-1 1,-1 1,-1 2,-1 2,-3 2,-4 0,-3 -3,-5 -5,-6 1,0 2,-1 3,-1 2,0 4,2 5,5 0,2 0,4 -1,5zm-8 2c-3,1 -7,1 -11,1 -5,0 -9,0 -13,-1 1,0 1,-1 2,-1 3,-1 6,0 8,2 2,-6 8,0 11,-3 1,0 2,1 2,1 3,-4 -4,-3 -5,-4 2,0 7,1 4,-1 0,0 0,0 1,0 1,0 -2,-2 -1,-3 2,0 4,3 4,5 0,3 -1,3 -2,4zm-31 -2c-4,-2 -7,-5 -7,-7 0,-3 3,-6 7,-8 0,1 0,1 1,2 0,0 -1,0 -1,0 -2,1 -7,7 -3,8 0,2 1,3 2,3l0 0c-2,-3 0,-7 3,-8 1,0 2,-1 2,0 -2,3 -3,6 -4,10z"/>
  </g>
 </g>
</svg>
