<?xml version="1.0" encoding="UTF-8"?>
<!DOCTYPE svg PUBLIC "-//W3C//DTD SVG 1.1//EN" "http://www.w3.org/Graphics/SVG/1.1/DTD/svg11.dtd">
<!-- Creator: CorelDRAW X8 -->
<svg xmlns="http://www.w3.org/2000/svg" xml:space="preserve" width="1438px" height="2028px" version="1.1" style="shape-rendering:geometricPrecision; text-rendering:geometricPrecision; image-rendering:optimizeQuality; fill-rule:evenodd; clip-rule:evenodd"
viewBox="0 0 486 685"
 xmlns:xlink="http://www.w3.org/1999/xlink">
 <defs>
  <style type="text/css">
   <![CDATA[
    .fil0 {fill:#606062;fill-rule:nonzero}
   ]]>
  </style>
 </defs>
 <g id="Layer_x0020_1">
  <metadata id="CorelCorpID_0Corel-Layer"/>
  <path class="fil0" d="M2 343c0,100 15,186 53,246 38,60 98,95 187,95 91,0 151,-35 189,-95 38,-60 53,-146 53,-246 0,-101 -13,-186 -50,-246 -37,-60 -97,-95 -192,-95 -93,0 -154,35 -190,95 -37,60 -50,145 -50,246zm51 247c-38,-61 -53,-146 -53,-247 0,-101 13,-187 50,-247 37,-61 98,-96 192,-96 96,0 157,35 194,96 37,60 50,146 50,247 0,101 -15,186 -53,247 -39,60 -100,95 -191,95 -90,0 -151,-35 -189,-95zm77 -247c0,-72 5,-134 21,-177 16,-44 44,-69 91,-69 49,0 77,25 93,69 16,43 21,105 21,177 0,83 -5,144 -21,185 -16,41 -44,61 -93,61 -47,0 -75,-20 -91,-61 -16,-41 -21,-102 -21,-185zm22 -176c-16,43 -20,104 -20,176 0,82 4,144 20,184 16,40 44,60 90,60 48,0 76,-20 92,-60 16,-40 20,-102 20,-184 0,-72 -4,-133 -20,-176 -16,-43 -44,-69 -92,-69 -46,0 -74,26 -90,69z"/>
 </g>
</svg>
